<svg width="1600" height="960" viewBox="0 0 1600 960" xmlns="http://www.w3.org/2000/svg" role="img" aria-label="Conversation Trace Debugger mock screenshot">
  <defs>
    <linearGradient id="bg" x1="0" y1="0" x2="1" y2="1">
      <stop offset="0%" stop-color="#f7f9fc"/>
      <stop offset="100%" stop-color="#eef3f8"/>
    </linearGradient>
    <linearGradient id="hero" x1="0" y1="0" x2="1" y2="0">
      <stop offset="0%" stop-color="#0b3a53"/>
      <stop offset="100%" stop-color="#176087"/>
    </linearGradient>
    <filter id="shadow" x="-20%" y="-20%" width="140%" height="140%">
      <feDropShadow dx="0" dy="4" stdDeviation="8" flood-color="#0f172a" flood-opacity="0.12"/>
    </filter>
  </defs>

  <rect width="1600" height="960" fill="url(#bg)"/>

  <rect x="24" y="20" width="1552" height="64" rx="14" fill="url(#hero)" filter="url(#shadow)"/>
  <text x="52" y="60" font-family="SF Pro Display,Segoe UI,Arial" font-size="24" font-weight="700" fill="#ffffff">Conversation Trace Debugger</text>
  <text x="520" y="60" font-family="SF Pro Text,Segoe UI,Arial" font-size="15" fill="#d6e7f2">session: s_7f20f1 • conversation: c_3b9a</text>
  <rect x="1328" y="36" width="106" height="32" rx="8" fill="#48b36d"/>
  <text x="1344" y="57" font-family="SF Pro Text,Segoe UI,Arial" font-size="14" font-weight="700" fill="#ffffff">LIVE</text>
  <rect x="1446" y="36" width="112" height="32" rx="8" fill="#f9fafb"/>
  <text x="1472" y="57" font-family="SF Pro Text,Segoe UI,Arial" font-size="14" font-weight="600" fill="#0f172a">Export NDJSON</text>

  <rect x="24" y="98" width="320" height="838" rx="14" fill="#ffffff" filter="url(#shadow)"/>
  <text x="48" y="132" font-family="SF Pro Display,Segoe UI,Arial" font-size="18" font-weight="700" fill="#0f172a">Turns</text>

  <rect x="40" y="154" width="288" height="92" rx="10" fill="#e5f1ff"/>
  <text x="56" y="180" font-family="SF Pro Text,Segoe UI,Arial" font-size="14" font-weight="700" fill="#1e3a8a">Turn #18  (active)</text>
  <text x="56" y="202" font-family="SF Pro Text,Segoe UI,Arial" font-size="13" fill="#1f2937">speech: 12.44s → 14.08s</text>
  <text x="56" y="222" font-family="SF Pro Text,Segoe UI,Arial" font-size="13" fill="#1f2937">stt 68ms • llm ttfb 312ms • tts 184ms</text>

  <rect x="40" y="258" width="288" height="92" rx="10" fill="#f8fafc"/>
  <text x="56" y="284" font-family="SF Pro Text,Segoe UI,Arial" font-size="14" font-weight="700" fill="#0f172a">Turn #17</text>
  <text x="56" y="306" font-family="SF Pro Text,Segoe UI,Arial" font-size="13" fill="#334155">barge-in triggered @ 9.72s</text>
  <text x="56" y="326" font-family="SF Pro Text,Segoe UI,Arial" font-size="13" fill="#334155">cancel reason: user_interrupt</text>

  <rect x="40" y="362" width="288" height="92" rx="10" fill="#f8fafc"/>
  <text x="56" y="388" font-family="SF Pro Text,Segoe UI,Arial" font-size="14" font-weight="700" fill="#0f172a">Turn #16</text>
  <text x="56" y="410" font-family="SF Pro Text,Segoe UI,Arial" font-size="13" fill="#334155">commit: explicit_input_commit</text>
  <text x="56" y="430" font-family="SF Pro Text,Segoe UI,Arial" font-size="13" fill="#334155">deepgram final + speculative promote</text>

  <text x="48" y="488" font-family="SF Pro Display,Segoe UI,Arial" font-size="16" font-weight="700" fill="#0f172a">Filters</text>
  <rect x="40" y="500" width="288" height="136" rx="10" fill="#f8fafc"/>
  <text x="56" y="528" font-family="SF Pro Text,Segoe UI,Arial" font-size="13" fill="#334155">☑ speech events</text>
  <text x="56" y="550" font-family="SF Pro Text,Segoe UI,Arial" font-size="13" fill="#334155">☑ transcript partial/final</text>
  <text x="56" y="572" font-family="SF Pro Text,Segoe UI,Arial" font-size="13" fill="#334155">☑ response + tts chunks</text>
  <text x="56" y="594" font-family="SF Pro Text,Segoe UI,Arial" font-size="13" fill="#334155">☑ provider warnings/errors</text>

  <rect x="360" y="98" width="1216" height="300" rx="14" fill="#ffffff" filter="url(#shadow)"/>
  <text x="388" y="132" font-family="SF Pro Display,Segoe UI,Arial" font-size="18" font-weight="700" fill="#0f172a">Conversation Timeline</text>

  <line x1="390" y1="182" x2="1548" y2="182" stroke="#94a3b8" stroke-width="2"/>
  <line x1="390" y1="230" x2="1548" y2="230" stroke="#94a3b8" stroke-width="2"/>
  <line x1="390" y1="278" x2="1548" y2="278" stroke="#94a3b8" stroke-width="2"/>
  <line x1="390" y1="326" x2="1548" y2="326" stroke="#94a3b8" stroke-width="2"/>

  <text x="388" y="186" font-family="SF Pro Text,Segoe UI,Arial" font-size="12" fill="#475569">Speech</text>
  <text x="388" y="234" font-family="SF Pro Text,Segoe UI,Arial" font-size="12" fill="#475569">STT</text>
  <text x="388" y="282" font-family="SF Pro Text,Segoe UI,Arial" font-size="12" fill="#475569">LLM</text>
  <text x="388" y="330" font-family="SF Pro Text,Segoe UI,Arial" font-size="12" fill="#475569">TTS</text>

  <rect x="520" y="168" width="180" height="28" rx="6" fill="#0ea5e9"/>
  <rect x="712" y="168" width="120" height="28" rx="6" fill="#38bdf8"/>
  <circle cx="870" cy="182" r="7" fill="#0369a1"/>

  <rect x="548" y="216" width="142" height="28" rx="6" fill="#f59e0b"/>
  <rect x="698" y="216" width="98" height="28" rx="6" fill="#fbbf24"/>
  <rect x="808" y="216" width="76" height="28" rx="6" fill="#fde68a"/>

  <rect x="900" y="264" width="160" height="28" rx="6" fill="#8b5cf6"/>
  <rect x="1068" y="264" width="60" height="28" rx="6" fill="#a78bfa"/>

  <rect x="1142" y="312" width="94" height="28" rx="6" fill="#16a34a"/>
  <rect x="1244" y="312" width="72" height="28" rx="6" fill="#22c55e"/>
  <rect x="1322" y="312" width="88" height="28" rx="6" fill="#86efac"/>

  <line x1="1090" y1="154" x2="1090" y2="350" stroke="#ef4444" stroke-width="2" stroke-dasharray="6 6"/>
  <text x="1098" y="152" font-family="SF Pro Text,Segoe UI,Arial" font-size="12" fill="#b91c1c">barge-in</text>

  <rect x="360" y="416" width="792" height="520" rx="14" fill="#ffffff" filter="url(#shadow)"/>
  <text x="388" y="450" font-family="SF Pro Display,Segoe UI,Arial" font-size="18" font-weight="700" fill="#0f172a">Turn #18 Detail</text>

  <text x="388" y="482" font-family="SF Pro Text,Segoe UI,Arial" font-size="14" font-weight="700" fill="#0f172a">Input Audio</text>
  <rect x="388" y="492" width="732" height="70" rx="8" fill="#f8fafc"/>
  <polyline points="406,535 430,525 454,545 478,510 502,538 526,520 550,543 574,518 598,536 622,522 646,541 670,516 694,534 718,520 742,545 766,510 790,538 814,522 838,540 862,520 886,548 910,525 934,545 958,515 982,539 1006,520 1030,540 1054,525 1078,546 1102,530" fill="none" stroke="#2563eb" stroke-width="2"/>
  <text x="400" y="554" font-family="SF Pro Text,Segoe UI,Arial" font-size="12" fill="#475569">clip: input_turn18.wav • duration 1.64s</text>

  <text x="388" y="592" font-family="SF Pro Text,Segoe UI,Arial" font-size="14" font-weight="700" fill="#0f172a">Transcription (Deepgram streaming)</text>
  <rect x="388" y="602" width="732" height="92" rx="8" fill="#f8fafc"/>
  <text x="404" y="628" font-family="SF Mono,Menlo,Consolas,monospace" font-size="13" fill="#334155">partial[12.78s]: "what's the fastest route to"</text>
  <text x="404" y="650" font-family="SF Mono,Menlo,Consolas,monospace" font-size="13" fill="#334155">partial[12.94s]: "what's the fastest route to downtown"</text>
  <text x="404" y="672" font-family="SF Mono,Menlo,Consolas,monospace" font-size="13" fill="#0f172a">final[13.02s]: "what's the fastest route to downtown right now"</text>

  <text x="388" y="724" font-family="SF Pro Text,Segoe UI,Arial" font-size="14" font-weight="700" fill="#0f172a">LLM Response</text>
  <rect x="388" y="734" width="732" height="90" rx="8" fill="#f8fafc"/>
  <text x="404" y="760" font-family="SF Mono,Menlo,Consolas,monospace" font-size="13" fill="#334155">run: run_8df2 • ttfb: 312ms • speculative: promoted</text>
  <text x="404" y="782" font-family="SF Mono,Menlo,Consolas,monospace" font-size="13" fill="#0f172a">"Take I-280 north, then switch to US-101 near downtown. "</text>
  <text x="404" y="804" font-family="SF Mono,Menlo,Consolas,monospace" font-size="13" fill="#0f172a">"Live traffic adds about 9 minutes right now."</text>

  <text x="388" y="854" font-family="SF Pro Text,Segoe UI,Arial" font-size="14" font-weight="700" fill="#0f172a">TTS Stream (ElevenLabs)</text>
  <rect x="388" y="864" width="732" height="56" rx="8" fill="#f8fafc"/>
  <text x="404" y="888" font-family="SF Mono,Menlo,Consolas,monospace" font-size="13" fill="#334155">chunk#1 @ 184ms • chunk#2 @ 241ms • chunk#3 @ 295ms • output: tts_turn18.wav</text>

  <rect x="1168" y="416" width="408" height="520" rx="14" fill="#ffffff" filter="url(#shadow)"/>
  <text x="1196" y="450" font-family="SF Pro Display,Segoe UI,Arial" font-size="18" font-weight="700" fill="#0f172a">Metrics + Diagnostics</text>

  <rect x="1196" y="470" width="352" height="84" rx="10" fill="#ecfdf5"/>
  <text x="1212" y="496" font-family="SF Pro Text,Segoe UI,Arial" font-size="13" font-weight="700" fill="#166534">KPIs (this turn)</text>
  <text x="1212" y="518" font-family="SF Mono,Menlo,Consolas,monospace" font-size="13" fill="#14532d">stt_ms: 68   llm_ttfb_ms: 312</text>
  <text x="1212" y="538" font-family="SF Mono,Menlo,Consolas,monospace" font-size="13" fill="#14532d">tts_ms: 184  e2e_ms: 571</text>

  <rect x="1196" y="566" width="352" height="120" rx="10" fill="#fff7ed"/>
  <text x="1212" y="592" font-family="SF Pro Text,Segoe UI,Arial" font-size="13" font-weight="700" fill="#9a3412">Warnings</text>
  <text x="1212" y="614" font-family="SF Mono,Menlo,Consolas,monospace" font-size="12" fill="#7c2d12">provider fallback: false</text>
  <text x="1212" y="634" font-family="SF Mono,Menlo,Consolas,monospace" font-size="12" fill="#7c2d12">quota 1008 errors: 0</text>
  <text x="1212" y="654" font-family="SF Mono,Menlo,Consolas,monospace" font-size="12" fill="#7c2d12">missing anchors: 0</text>

  <rect x="1196" y="698" width="352" height="222" rx="10" fill="#f8fafc"/>
  <text x="1212" y="724" font-family="SF Pro Text,Segoe UI,Arial" font-size="13" font-weight="700" fill="#0f172a">Event Log (latest)</text>
  <text x="1212" y="748" font-family="SF Mono,Menlo,Consolas,monospace" font-size="12" fill="#334155">13.02  transcript.final(turn=18)</text>
  <text x="1212" y="768" font-family="SF Mono,Menlo,Consolas,monospace" font-size="12" fill="#334155">13.04  turn_committed(reason=vad_end)</text>
  <text x="1212" y="788" font-family="SF Mono,Menlo,Consolas,monospace" font-size="12" fill="#334155">13.17  response.started(run=run_8df2)</text>
  <text x="1212" y="808" font-family="SF Mono,Menlo,Consolas,monospace" font-size="12" fill="#334155">13.36  tts.chunk(seq=1,size=4.2kb)</text>
  <text x="1212" y="828" font-family="SF Mono,Menlo,Consolas,monospace" font-size="12" fill="#334155">13.69  response.completed(turn=18)</text>

</svg>
