<svg width="1600" height="980" viewBox="0 0 1600 980" xmlns="http://www.w3.org/2000/svg" role="img" aria-label="Main conversation panel with debug toggle mock screenshot">
  <defs>
    <linearGradient id="bg" x1="0" y1="0" x2="1" y2="1">
      <stop offset="0%" stop-color="#f8fafc"/>
      <stop offset="100%" stop-color="#ecf2f8"/>
    </linearGradient>
    <linearGradient id="top" x1="0" y1="0" x2="1" y2="0">
      <stop offset="0%" stop-color="#11344a"/>
      <stop offset="100%" stop-color="#1b5a7d"/>
    </linearGradient>
    <filter id="shadow" x="-20%" y="-20%" width="140%" height="140%">
      <feDropShadow dx="0" dy="4" stdDeviation="8" flood-color="#0f172a" flood-opacity="0.14"/>
    </filter>
  </defs>

  <rect width="1600" height="980" fill="url(#bg)"/>

  <rect x="20" y="18" width="1560" height="66" rx="14" fill="url(#top)" filter="url(#shadow)"/>
  <text x="46" y="58" font-family="SF Pro Display,Segoe UI,Arial" font-size="24" font-weight="700" fill="#fff">TeaNode Conversation</text>
  <text x="306" y="58" font-family="SF Pro Text,Segoe UI,Arial" font-size="14" fill="#cfe2ef">session s_7f20f1 • provider deepgram + elevenlabs</text>

  <text x="1260" y="49" font-family="SF Pro Text,Segoe UI,Arial" font-size="13" fill="#dbeafe">Debug</text>
  <rect x="1314" y="34" width="58" height="30" rx="15" fill="#22c55e"/>
  <circle cx="1353" cy="49" r="11" fill="#ffffff"/>
  <text x="1388" y="53" font-family="SF Pro Text,Segoe UI,Arial" font-size="13" fill="#dbeafe">ON</text>

  <rect x="20" y="100" width="240" height="858" rx="14" fill="#ffffff" filter="url(#shadow)"/>
  <text x="42" y="136" font-family="SF Pro Display,Segoe UI,Arial" font-size="17" font-weight="700" fill="#0f172a">Conversations</text>
  <rect x="34" y="154" width="212" height="76" rx="10" fill="#e0efff"/>
  <text x="48" y="180" font-family="SF Pro Text,Segoe UI,Arial" font-size="14" font-weight="700" fill="#1e3a8a">Road-trip planning</text>
  <text x="48" y="202" font-family="SF Pro Text,Segoe UI,Arial" font-size="12" fill="#334155">6 turns • last active 1m ago</text>

  <rect x="276" y="100" width="930" height="858" rx="14" fill="#ffffff" filter="url(#shadow)"/>
  <text x="304" y="136" font-family="SF Pro Display,Segoe UI,Arial" font-size="19" font-weight="700" fill="#0f172a">Main Conversation Panel</text>

  <rect x="304" y="162" width="874" height="90" rx="12" fill="#f8fafc"/>
  <text x="322" y="188" font-family="SF Pro Text,Segoe UI,Arial" font-size="13" fill="#334155">User (Turn #18)</text>
  <text x="322" y="214" font-family="SF Pro Text,Segoe UI,Arial" font-size="16" fill="#0f172a">"What is the fastest route to downtown right now?"</text>

  <rect x="304" y="266" width="874" height="146" rx="12" fill="#f8fafc"/>
  <text x="322" y="292" font-family="SF Pro Text,Segoe UI,Arial" font-size="13" fill="#334155">Assistant</text>
  <text x="322" y="318" font-family="SF Pro Text,Segoe UI,Arial" font-size="16" fill="#0f172a">"Take I-280 north and merge to US-101. Live traffic adds about 9 minutes."</text>

  <rect x="322" y="338" width="86" height="24" rx="6" fill="#dbeafe"/>
  <text x="334" y="354" font-family="SF Mono,Menlo,Consolas,monospace" font-size="12" fill="#1e3a8a">turn:18</text>
  <rect x="416" y="338" width="90" height="24" rx="6" fill="#ecfdf5"/>
  <text x="428" y="354" font-family="SF Mono,Menlo,Consolas,monospace" font-size="12" fill="#166534">stt 68ms</text>
  <rect x="514" y="338" width="114" height="24" rx="6" fill="#f3e8ff"/>
  <text x="526" y="354" font-family="SF Mono,Menlo,Consolas,monospace" font-size="12" fill="#6b21a8">llm ttfb 312ms</text>
  <rect x="636" y="338" width="96" height="24" rx="6" fill="#fef9c3"/>
  <text x="648" y="354" font-family="SF Mono,Menlo,Consolas,monospace" font-size="12" fill="#854d0e">tts 184ms</text>
  <rect x="740" y="338" width="96" height="24" rx="6" fill="#dcfce7"/>
  <text x="752" y="354" font-family="SF Mono,Menlo,Consolas,monospace" font-size="12" fill="#166534">e2e 571ms</text>

  <line x1="322" y1="382" x2="1148" y2="382" stroke="#cbd5e1" stroke-width="2"/>
  <circle cx="382" cy="382" r="6" fill="#0ea5e9"/>
  <circle cx="518" cy="382" r="6" fill="#f59e0b"/>
  <circle cx="676" cy="382" r="6" fill="#8b5cf6"/>
  <circle cx="820" cy="382" r="6" fill="#16a34a"/>
  <text x="344" y="402" font-family="SF Pro Text,Segoe UI,Arial" font-size="12" fill="#334155">speech_end 13.02</text>
  <text x="468" y="402" font-family="SF Pro Text,Segoe UI,Arial" font-size="12" fill="#334155">transcript.final 13.04</text>
  <text x="626" y="402" font-family="SF Pro Text,Segoe UI,Arial" font-size="12" fill="#334155">response.started 13.17</text>
  <text x="790" y="402" font-family="SF Pro Text,Segoe UI,Arial" font-size="12" fill="#334155">tts.chunk#1 13.36</text>

  <rect x="854" y="336" width="94" height="26" rx="8" fill="#e2e8f0"/>
  <text x="870" y="353" font-family="SF Pro Text,Segoe UI,Arial" font-size="12" fill="#0f172a">▶ input audio</text>
  <rect x="956" y="336" width="86" height="26" rx="8" fill="#e2e8f0"/>
  <text x="972" y="353" font-family="SF Pro Text,Segoe UI,Arial" font-size="12" fill="#0f172a">▶ tts audio</text>
  <rect x="1050" y="336" width="112" height="26" rx="8" fill="#e2e8f0"/>
  <text x="1066" y="353" font-family="SF Pro Text,Segoe UI,Arial" font-size="12" fill="#0f172a">trace details ↗</text>

  <rect x="304" y="430" width="874" height="106" rx="12" fill="#ffffff" stroke="#e2e8f0" stroke-width="2" stroke-dasharray="6 4"/>
  <text x="322" y="458" font-family="SF Pro Text,Segoe UI,Arial" font-size="14" font-weight="700" fill="#0f172a">Debug Inline Section (collapsed for other turns)</text>
  <text x="322" y="482" font-family="SF Pro Text,Segoe UI,Arial" font-size="13" fill="#475569">When Debug is OFF, this entire section is hidden and conversation UI remains unchanged.</text>
  <text x="322" y="504" font-family="SF Pro Text,Segoe UI,Arial" font-size="13" fill="#475569">When ON, each turn gets badges + mini timeline + quick artifact actions.</text>

  <rect x="1218" y="100" width="362" height="858" rx="14" fill="#ffffff" filter="url(#shadow)"/>
  <text x="1244" y="136" font-family="SF Pro Display,Segoe UI,Arial" font-size="18" font-weight="700" fill="#0f172a">Debug Drawer</text>
  <text x="1244" y="158" font-family="SF Pro Text,Segoe UI,Arial" font-size="12" fill="#64748b">opens from selected turn</text>

  <rect x="1244" y="176" width="310" height="90" rx="10" fill="#ecfdf5"/>
  <text x="1260" y="202" font-family="SF Pro Text,Segoe UI,Arial" font-size="13" font-weight="700" fill="#166534">Turn #18 Summary</text>
  <text x="1260" y="224" font-family="SF Mono,Menlo,Consolas,monospace" font-size="12" fill="#14532d">speech 1.64s • barge-in false</text>
  <text x="1260" y="244" font-family="SF Mono,Menlo,Consolas,monospace" font-size="12" fill="#14532d">provider fallback false</text>

  <rect x="1244" y="280" width="310" height="152" rx="10" fill="#f8fafc"/>
  <text x="1260" y="306" font-family="SF Pro Text,Segoe UI,Arial" font-size="13" font-weight="700" fill="#0f172a">Transcript Evolution</text>
  <text x="1260" y="328" font-family="SF Mono,Menlo,Consolas,monospace" font-size="12" fill="#334155">12.78 partial: what's the fastest route</text>
  <text x="1260" y="348" font-family="SF Mono,Menlo,Consolas,monospace" font-size="12" fill="#334155">12.94 partial: ... to downtown</text>
  <text x="1260" y="368" font-family="SF Mono,Menlo,Consolas,monospace" font-size="12" fill="#0f172a">13.02 final: ... right now</text>
  <text x="1260" y="398" font-family="SF Pro Text,Segoe UI,Arial" font-size="12" fill="#2563eb">View raw STT JSON</text>

  <rect x="1244" y="446" width="310" height="196" rx="10" fill="#fff7ed"/>
  <text x="1260" y="472" font-family="SF Pro Text,Segoe UI,Arial" font-size="13" font-weight="700" fill="#9a3412">Event Log</text>
  <text x="1260" y="494" font-family="SF Mono,Menlo,Consolas,monospace" font-size="12" fill="#7c2d12">13.02 transcript.final(turn=18)</text>
  <text x="1260" y="514" font-family="SF Mono,Menlo,Consolas,monospace" font-size="12" fill="#7c2d12">13.04 turn_committed(vad_end)</text>
  <text x="1260" y="534" font-family="SF Mono,Menlo,Consolas,monospace" font-size="12" fill="#7c2d12">13.17 response.started(run_8df2)</text>
  <text x="1260" y="554" font-family="SF Mono,Menlo,Consolas,monospace" font-size="12" fill="#7c2d12">13.36 tts.chunk(seq=1)</text>
  <text x="1260" y="574" font-family="SF Mono,Menlo,Consolas,monospace" font-size="12" fill="#7c2d12">13.69 response.completed</text>
  <text x="1260" y="606" font-family="SF Pro Text,Segoe UI,Arial" font-size="12" fill="#2563eb">Open full JSON payloads</text>

  <rect x="1244" y="656" width="310" height="122" rx="10" fill="#f1f5f9"/>
  <text x="1260" y="682" font-family="SF Pro Text,Segoe UI,Arial" font-size="13" font-weight="700" fill="#0f172a">Diagnostics</text>
  <text x="1260" y="704" font-family="SF Mono,Menlo,Consolas,monospace" font-size="12" fill="#334155">missing anchors: 0</text>
  <text x="1260" y="724" font-family="SF Mono,Menlo,Consolas,monospace" font-size="12" fill="#334155">quota 1008 errors: 0</text>
  <text x="1260" y="744" font-family="SF Mono,Menlo,Consolas,monospace" font-size="12" fill="#334155">turn.metrics emitted: yes</text>

  <rect x="1244" y="792" width="310" height="62" rx="10" fill="#e2e8f0"/>
  <text x="1260" y="829" font-family="SF Pro Text,Segoe UI,Arial" font-size="13" fill="#0f172a">Close drawer</text>

</svg>
